<?xml version="1.0"?>
<svg width="16" height="16" xmlns="http://www.w3.org/2000/svg" xmlns:svg="http://www.w3.org/2000/svg" class="bi bi-repeat">

 <g class="layer">
  <title>Layer 1</title>
  <path d="m11,5.47l0,-1.47l-6,0a4,4 0 0 0 -3.58,5.78a0.5,0.5 0 1 1 -0.9,0.44a5,5 0 0 1 4.48,-7.22l6,0l0,-1.47a0.25,0.25 0 0 1 0.41,-0.19l2.36,1.97c0.12,0.1 0.12,0.28 0,0.38l-2.36,1.97a0.25,0.25 0 0 1 -0.41,-0.19m3.81,0.08a0.5,0.5 0 0 1 0.67,0.23a5,5 0 0 1 -4.48,7.22l-6,0l0,1.47a0.25,0.25 0 0 1 -0.41,0.19l-2.36,-1.97a0.25,0.25 0 0 1 0,-0.38l2.36,-1.97a0.25,0.25 0 0 1 0.41,0.19l0,1.47l6,0a4,4 0 0 0 3.59,-5.78a0.5,0.5 0 0 1 0.22,-0.67z" fill="#f0f0f0" id="svg_1" style="--darkreader-inline-fill: var(--darkreader-background-f0f0f0, #202325);"/>
 </g>
</svg>