<?xml version="1.0"?>
<svg width="16" height="16" xmlns="http://www.w3.org/2000/svg" xmlns:svg="http://www.w3.org/2000/svg" class="bi bi-gear">

 <g class="layer">
  <title>Layer 1</title>
  <path d="m8,4.75a3.25,3.25 0 1 0 0,6.5a3.25,3.25 0 0 0 0,-6.5m-2.25,3.25a2.25,2.25 0 1 1 4.5,0a2.25,2.25 0 0 1 -4.5,0" fill="#f0f0f0" id="svg_1" style="--darkreader-inline-fill: var(--darkreader-background-f0f0f0, #202325);"/>
  <path d="m9.8,1.24c-0.53,-1.79 -3.07,-1.79 -3.6,0l-0.09,0.32a0.87,0.87 0 0 1 -1.26,0.52l-0.29,-0.16c-1.64,-0.89 -3.43,0.9 -2.54,2.54l0.16,0.29a0.87,0.87 0 0 1 -0.52,1.26l-0.32,0.09c-1.79,0.53 -1.79,3.07 0,3.6l0.32,0.09a0.87,0.87 0 0 1 0.52,1.25l-0.16,0.3c-0.89,1.64 0.9,3.43 2.54,2.54l0.29,-0.16a0.87,0.87 0 0 1 1.26,0.52l0.09,0.32c0.53,1.79 3.07,1.79 3.6,0l0.09,-0.32a0.87,0.87 0 0 1 1.25,-0.52l0.3,0.16c1.64,0.89 3.43,-0.9 2.54,-2.54l-0.16,-0.3a0.87,0.87 0 0 1 0.52,-1.25l0.32,-0.09c1.79,-0.53 1.79,-3.07 0,-3.6l-0.32,-0.09a0.87,0.87 0 0 1 -0.52,-1.25l0.16,-0.3c0.89,-1.64 -0.9,-3.43 -2.54,-2.54l-0.3,0.16a0.87,0.87 0 0 1 -1.25,-0.52l-0.09,-0.32zm-2.64,0.29c0.25,-0.84 1.43,-0.84 1.68,0l0.09,0.31a1.87,1.87 0 0 0 2.69,1.12l0.29,-0.16c0.77,-0.42 1.6,0.42 1.19,1.18l-0.16,0.3a1.87,1.87 0 0 0 1.12,2.69l0.31,0.09c0.84,0.25 0.84,1.43 0,1.68l-0.32,0.09a1.87,1.87 0 0 0 -1.11,2.69l0.16,0.29c0.41,0.77 -0.42,1.6 -1.19,1.19l-0.29,-0.16a1.87,1.87 0 0 0 -2.69,1.12l-0.09,0.31c-0.25,0.84 -1.43,0.84 -1.68,0l-0.09,-0.32a1.87,1.87 0 0 0 -2.69,-1.11l-0.3,0.16c-0.76,0.41 -1.6,-0.42 -1.18,-1.19l0.16,-0.29a1.87,1.87 0 0 0 -1.11,-2.69l-0.32,-0.09c-0.84,-0.25 -0.84,-1.43 0,-1.68l0.32,-0.09a1.87,1.87 0 0 0 1.11,-2.69l-0.16,-0.3c-0.42,-0.76 0.42,-1.6 1.18,-1.18l0.3,0.16a1.87,1.87 0 0 0 2.69,-1.12l0.09,-0.31z" fill="#f0f0f0" id="svg_2" style="--darkreader-inline-fill: var(--darkreader-background-f0f0f0, #202325);"/>
 </g>
</svg>