<svg width="16" height="16" xmlns="http://www.w3.org/2000/svg" fill="currentColor">
 <g>
  <title>Layer 1</title>
  <path d="m8.03128,0.12504c0.7254,0 1.4251,0.09487 2.10109,0.2866a7.79357,7.79358 0 0 1 3.48269,2.03783a7.79554,7.79555 0 0 1 2.03585,3.48269c0.19172,0.67202 0.2866,1.37372 0.2866,2.09911c0,0.7254 -0.09487,1.4251 -0.2866,2.10108a7.78764,7.78765 0 0 1 -2.03585,3.48863a7.93984,7.93985 0 0 1 -3.48269,2.03783c-0.67795,0.18579 -1.37569,0.2787 -2.10109,0.2787s-1.4251,-0.0929 -2.10109,-0.27671a8.01692,8.01692 0 0 1 -3.48863,-2.03981a8.01495,8.01495 0 0 1 -2.03981,-3.49061a7.89042,7.89042 0 0 1 -0.27671,-2.09911c0,-0.7254 0.0929,-1.4251 0.27671,-2.10108a7.94577,7.94577 0 0 1 0.80445,-1.88366a8.08215,8.08216 0 0 1 2.83241,-2.84229a7.78764,7.78765 0 0 1 1.89157,-0.7926a7.68881,7.68882 0 0 1 2.10109,-0.2866z" id="svg_1"/>
 </g>

</svg>