<?xml version="1.0"?>
<svg width="20" height="20" xmlns="http://www.w3.org/2000/svg" xmlns:svg="http://www.w3.org/2000/svg">
 <g class="layer">
  <title>Layer 1</title>
  <path d="m10,1.65c0.77,0 1.5,0.1 2.21,0.29a8.22,8.22 0 0 1 3.69,2.17a8.22,8.22 0 0 1 2.15,3.67c0.19,0.71 0.29,1.44 0.29,2.21c0,0.77 -0.1,1.5 -0.29,2.21a8.22,8.22 0 0 1 -2.15,3.69a8.39,8.39 0 0 1 -3.69,2.15c-0.71,0.19 -1.44,0.29 -2.21,0.29s-1.5,-0.1 -2.21,-0.29a8.47,8.47 0 0 1 -3.69,-2.15a8.45,8.45 0 0 1 -2.15,-3.69a8.33,8.33 0 0 1 -0.29,-2.21c0,-0.77 0.1,-1.5 0.29,-2.21a8.39,8.39 0 0 1 0.86,-2a8.53,8.53 0 0 1 2.98,-2.98a8.22,8.22 0 0 1 2,-0.83a8.12,8.12 0 0 1 2.21,-0.31z" id="svg_1"/>
 </g>

</svg>